<?xml version="1.0" encoding="utf-8"?>
<svg xmlns="http://www.w3.org/2000/svg" xmlns:xlink="http://www.w3.org/1999/xlink" width="100%" height="100%" color-interpolation-filters="sRGB" preserveAspectRatio="xMidYMid meet" style="margin:auto" version="1.0" viewBox="0 0 340.000000 250.000000">
    <g fill="#fff" transform="translate(56.56640625,70.56309127807617)">
        <g transform="translate(0,0)">
            <rect width="42.87381919219685" height="42.87381919219685" x="0" y="0" fill-opacity="0" stroke="rgb(255, 255, 255)" stroke-width="2" rx="8.57476383843937" ry="8.57476383843937"/>
            <g transform="translate(15.132222096098424,6.257222096098424)">
                <g>
                    <path d="M12.66-28.92L12.66-28.92L12.66-28.92Q13.74-27.54 13.80-26.49L13.80-26.49L13.80-26.49Q13.86-25.44 13.44-24.66L13.44-24.66L13.44-24.66Q12.96-23.76 12.06-23.04L12.06-23.04L12.06-23.04Q11.16-22.14 10.56-21.21L10.56-21.21L10.56-21.21Q9.96-20.28 9.72-18.90L9.72-18.90L9.72-4.20L9.72-4.20Q9.72-2.46 8.55-1.29L8.55-1.29L8.55-1.29Q7.38-0.12 5.58-0.12L5.58-0.12L5.58-0.12Q3.84-0.12 2.52-1.29L2.52-1.29L2.52-1.29Q1.20-2.46 1.20-4.20L1.20-4.20L1.20-18.90L1.20-18.90Q1.62-22.50 3-25.05L3-25.05L3-25.05Q4.38-27.60 7.08-29.76L7.08-29.76L7.08-29.76Q7.50-30 8.19-30.24L8.19-30.24L8.19-30.24Q8.88-30.48 9.63-30.48L9.63-30.48L9.63-30.48Q10.38-30.48 11.19-30.15L11.19-30.15L11.19-30.15Q12-29.82 12.66-28.92Z" transform="translate(-1.2,30.48)"/>
                </g>
            </g>
        </g>
        <g transform="translate(54.873817443847656,6.421283721923828)">
            <g class="tp-name">
                <g>
                    <path d="M6.68 0L3.74 0L3.74-29.82L16.34-29.82L16.34-29.82Q18.27-29.82 19.89-29.00L19.89-29.00L19.89-29.00Q21.50-28.18 22.68-26.86L22.68-26.86L22.68-26.86Q23.86-25.54 24.51-23.86L24.51-23.86L24.51-23.86Q25.16-22.18 25.16-20.45L25.16-20.45L25.16-20.45Q25.16-18.82 24.68-17.33L24.68-17.33L24.68-17.33Q24.19-15.83 23.33-14.64L23.33-14.64L23.33-14.64Q22.47-13.44 21.25-12.62L21.25-12.62L21.25-12.62Q20.03-11.80 18.52-11.51L18.52-11.51L25.83 0L22.51 0L15.50-11.00L6.68-11.00L6.68 0M6.68-27.22L6.68-13.61L16.42-13.61L16.42-13.61Q17.72-13.61 18.80-14.18L18.80-14.18L18.80-14.18Q19.87-14.74 20.62-15.71L20.62-15.71L20.62-15.71Q21.38-16.67 21.80-17.89L21.80-17.89L21.80-17.89Q22.22-19.11 22.22-20.45L22.22-20.45L22.22-20.45Q22.22-21.80 21.74-23.04L21.74-23.04L21.74-23.04Q21.25-24.28 20.43-25.20L20.43-25.20L20.43-25.20Q19.61-26.12 18.50-26.67L18.50-26.67L18.50-26.67Q17.39-27.22 16.17-27.22L16.17-27.22L6.68-27.22ZM34.10-2.60L51.20-2.60L51.20 0L31.16 0L31.16-29.82L50.82-29.82L50.82-27.22L34.10-27.22L34.10-16.46L48.68-16.46L48.68-13.99L34.10-13.99L34.10-2.60ZM79.17-7.69L79.17-7.69L79.17-7.69Q79.17-6.01 78.50-4.60L78.50-4.60L78.50-4.60Q77.83-3.19 76.69-2.16L76.69-2.16L76.69-2.16Q75.56-1.13 74.05-0.57L74.05-0.57L74.05-0.57Q72.53 0 70.81 0L70.81 0L56.74 0L56.74-29.82L71.11-29.82L71.11-29.82Q72.66-29.82 73.92-29.15L73.92-29.15L73.92-29.15Q75.18-28.48 76.06-27.41L76.06-27.41L76.06-27.41Q76.94-26.33 77.43-24.97L77.43-24.97L77.43-24.97Q77.91-23.60 77.91-22.22L77.91-22.22L77.91-22.22Q77.91-19.95 76.78-18.08L76.78-18.08L76.78-18.08Q75.64-16.21 73.63-15.29L73.63-15.29L73.63-15.29Q76.19-14.53 77.68-12.47L77.68-12.47L77.68-12.47Q79.17-10.42 79.17-7.69M76.23-8.19L76.23-8.19L76.23-8.19Q76.23-9.28 75.85-10.31L75.85-10.31L75.85-10.31Q75.47-11.34 74.78-12.12L74.78-12.12L74.78-12.12Q74.09-12.89 73.14-13.38L73.14-13.38L73.14-13.38Q72.20-13.86 71.11-13.86L71.11-13.86L59.68-13.86L59.68-2.56L70.81-2.56L70.81-2.56Q71.95-2.56 72.93-3.02L72.93-3.02L72.93-3.02Q73.92-3.49 74.66-4.26L74.66-4.26L74.66-4.26Q75.39-5.04 75.81-6.07L75.81-6.07L75.81-6.07Q76.23-7.10 76.23-8.19M70.18-27.26L59.68-27.26L59.68-16.25L69.93-16.25L69.93-16.25Q71.02-16.25 71.97-16.72L71.97-16.72L71.97-16.72Q72.91-17.18 73.58-17.93L73.58-17.93L73.58-17.93Q74.26-18.69 74.63-19.68L74.63-19.68L74.63-19.68Q75.01-20.66 75.01-21.76L75.01-21.76L75.01-21.76Q75.01-22.89 74.66-23.90L74.66-23.90L74.66-23.90Q74.30-24.91 73.65-25.64L73.65-25.64L73.65-25.64Q73.00-26.38 72.11-26.82L72.11-26.82L72.11-26.82Q71.23-27.26 70.18-27.26L70.18-27.26ZM96.81-2.44L96.81-2.44L96.81-2.44Q99.62-2.44 101.49-3.51L101.49-3.51L101.49-3.51Q103.36-4.58 104.47-6.32L104.47-6.32L104.47-6.32Q105.59-8.06 106.03-10.29L106.03-10.29L106.03-10.29Q106.47-12.52 106.47-14.78L106.47-14.78L106.47-29.82L109.41-29.82L109.41-14.78L109.41-14.78Q109.41-11.76 108.74-9.05L108.74-9.05L108.74-9.05Q108.07-6.34 106.58-4.28L106.58-4.28L106.58-4.28Q105.08-2.23 102.69-1.01L102.69-1.01L102.69-1.01Q100.30 0.21 96.85 0.21L96.85 0.21L96.85 0.21Q93.32 0.21 90.91-1.07L90.91-1.07L90.91-1.07Q88.49-2.35 87.02-4.45L87.02-4.45L87.02-4.45Q85.55-6.55 84.92-9.24L84.92-9.24L84.92-9.24Q84.29-11.93 84.29-14.78L84.29-14.78L84.29-29.82L87.19-29.82L87.19-14.78L87.19-14.78Q87.19-12.43 87.65-10.21L87.65-10.21L87.65-10.21Q88.12-7.98 89.23-6.26L89.23-6.26L89.23-6.26Q90.34-4.54 92.19-3.49L92.19-3.49L92.19-3.49Q94.04-2.44 96.81-2.44ZM119.36 0L116.42 0L116.42-29.82L119.36-29.82L119.36 0ZM147 0L126.84 0L126.84-29.82L129.78-29.82L129.78-2.60L147-2.60L147 0ZM161.45 0L151.33 0L151.33-29.82L161.45-29.82L161.45-29.82Q165.02-29.82 167.69-28.64L167.69-28.64L167.69-28.64Q170.35-27.47 172.14-25.45L172.14-25.45L172.14-25.45Q173.92-23.44 174.82-20.73L174.82-20.73L174.82-20.73Q175.73-18.02 175.73-14.95L175.73-14.95L175.73-14.95Q175.73-11.55 174.72-8.80L174.72-8.80L174.72-8.80Q173.71-6.05 171.84-4.10L171.84-4.10L171.84-4.10Q169.97-2.14 167.35-1.07L167.35-1.07L167.35-1.07Q164.72 0 161.45 0L161.45 0M172.79-14.95L172.79-14.95L172.79-14.95Q172.79-17.64 172.03-19.89L172.03-19.89L172.03-19.89Q171.28-22.13 169.83-23.77L169.83-23.77L169.83-23.77Q168.38-25.41 166.28-26.31L166.28-26.31L166.28-26.31Q164.18-27.22 161.45-27.22L161.45-27.22L154.27-27.22L154.27-2.60L161.45-2.60L161.45-2.60Q164.22-2.60 166.34-3.55L166.34-3.55L166.34-3.55Q168.46-4.49 169.89-6.15L169.89-6.15L169.89-6.15Q171.32-7.81 172.05-10.06L172.05-10.06L172.05-10.06Q172.79-12.31 172.79-14.95Z" transform="translate(-3.738,29.82)"/>
                </g>
            </g>
        </g>
    </g>
    <g fill="#556" transform="translate(56.56640625,136.56309127807617)">
        <g transform="translate(0,0)">
            <rect width="42.87381919219685" height="42.87381919219685" x="0" y="0" fill-opacity="0" stroke="#556" stroke-width="2" rx="8.57476383843937" ry="8.57476383843937"/>
            <g transform="translate(15.132222096098424,6.257222096098424)">
                <g>
                    <path d="M12.66-28.92L12.66-28.92L12.66-28.92Q13.74-27.54 13.80-26.49L13.80-26.49L13.80-26.49Q13.86-25.44 13.44-24.66L13.44-24.66L13.44-24.66Q12.96-23.76 12.06-23.04L12.06-23.04L12.06-23.04Q11.16-22.14 10.56-21.21L10.56-21.21L10.56-21.21Q9.96-20.28 9.72-18.90L9.72-18.90L9.72-4.20L9.72-4.20Q9.72-2.46 8.55-1.29L8.55-1.29L8.55-1.29Q7.38-0.12 5.58-0.12L5.58-0.12L5.58-0.12Q3.84-0.12 2.52-1.29L2.52-1.29L2.52-1.29Q1.20-2.46 1.20-4.20L1.20-4.20L1.20-18.90L1.20-18.90Q1.62-22.50 3-25.05L3-25.05L3-25.05Q4.38-27.60 7.08-29.76L7.08-29.76L7.08-29.76Q7.50-30 8.19-30.24L8.19-30.24L8.19-30.24Q8.88-30.48 9.63-30.48L9.63-30.48L9.63-30.48Q10.38-30.48 11.19-30.15L11.19-30.15L11.19-30.15Q12-29.82 12.66-28.92Z" transform="translate(-1.2,30.48)"/>
                </g>
            </g>
        </g>
        <g transform="translate(54.873817443847656,6.421283721923828)">
            <g class="tp-name">
                <g>
                    <path d="M6.68 0L3.74 0L3.74-29.82L16.34-29.82L16.34-29.82Q18.27-29.82 19.89-29.00L19.89-29.00L19.89-29.00Q21.50-28.18 22.68-26.86L22.68-26.86L22.68-26.86Q23.86-25.54 24.51-23.86L24.51-23.86L24.51-23.86Q25.16-22.18 25.16-20.45L25.16-20.45L25.16-20.45Q25.16-18.82 24.68-17.33L24.68-17.33L24.68-17.33Q24.19-15.83 23.33-14.64L23.33-14.64L23.33-14.64Q22.47-13.44 21.25-12.62L21.25-12.62L21.25-12.62Q20.03-11.80 18.52-11.51L18.52-11.51L25.83 0L22.51 0L15.50-11.00L6.68-11.00L6.68 0M6.68-27.22L6.68-13.61L16.42-13.61L16.42-13.61Q17.72-13.61 18.80-14.18L18.80-14.18L18.80-14.18Q19.87-14.74 20.62-15.71L20.62-15.71L20.62-15.71Q21.38-16.67 21.80-17.89L21.80-17.89L21.80-17.89Q22.22-19.11 22.22-20.45L22.22-20.45L22.22-20.45Q22.22-21.80 21.74-23.04L21.74-23.04L21.74-23.04Q21.25-24.28 20.43-25.20L20.43-25.20L20.43-25.20Q19.61-26.12 18.50-26.67L18.50-26.67L18.50-26.67Q17.39-27.22 16.17-27.22L16.17-27.22L6.68-27.22ZM34.10-2.60L51.20-2.60L51.20 0L31.16 0L31.16-29.82L50.82-29.82L50.82-27.22L34.10-27.22L34.10-16.46L48.68-16.46L48.68-13.99L34.10-13.99L34.10-2.60ZM79.17-7.69L79.17-7.69L79.17-7.69Q79.17-6.01 78.50-4.60L78.50-4.60L78.50-4.60Q77.83-3.19 76.69-2.16L76.69-2.16L76.69-2.16Q75.56-1.13 74.05-0.57L74.05-0.57L74.05-0.57Q72.53 0 70.81 0L70.81 0L56.74 0L56.74-29.82L71.11-29.82L71.11-29.82Q72.66-29.82 73.92-29.15L73.92-29.15L73.92-29.15Q75.18-28.48 76.06-27.41L76.06-27.41L76.06-27.41Q76.94-26.33 77.43-24.97L77.43-24.97L77.43-24.97Q77.91-23.60 77.91-22.22L77.91-22.22L77.91-22.22Q77.91-19.95 76.78-18.08L76.78-18.08L76.78-18.08Q75.64-16.21 73.63-15.29L73.63-15.29L73.63-15.29Q76.19-14.53 77.68-12.47L77.68-12.47L77.68-12.47Q79.17-10.42 79.17-7.69M76.23-8.19L76.23-8.19L76.23-8.19Q76.23-9.28 75.85-10.31L75.85-10.31L75.85-10.31Q75.47-11.34 74.78-12.12L74.78-12.12L74.78-12.12Q74.09-12.89 73.14-13.38L73.14-13.38L73.14-13.38Q72.20-13.86 71.11-13.86L71.11-13.86L59.68-13.86L59.68-2.56L70.81-2.56L70.81-2.56Q71.95-2.56 72.93-3.02L72.93-3.02L72.93-3.02Q73.92-3.49 74.66-4.26L74.66-4.26L74.66-4.26Q75.39-5.04 75.81-6.07L75.81-6.07L75.81-6.07Q76.23-7.10 76.23-8.19M70.18-27.26L59.68-27.26L59.68-16.25L69.93-16.25L69.93-16.25Q71.02-16.25 71.97-16.72L71.97-16.72L71.97-16.72Q72.91-17.18 73.58-17.93L73.58-17.93L73.58-17.93Q74.26-18.69 74.63-19.68L74.63-19.68L74.63-19.68Q75.01-20.66 75.01-21.76L75.01-21.76L75.01-21.76Q75.01-22.89 74.66-23.90L74.66-23.90L74.66-23.90Q74.30-24.91 73.65-25.64L73.65-25.64L73.65-25.64Q73.00-26.38 72.11-26.82L72.11-26.82L72.11-26.82Q71.23-27.26 70.18-27.26L70.18-27.26ZM96.81-2.44L96.81-2.44L96.81-2.44Q99.62-2.44 101.49-3.51L101.49-3.51L101.49-3.51Q103.36-4.58 104.47-6.32L104.47-6.32L104.47-6.32Q105.59-8.06 106.03-10.29L106.03-10.29L106.03-10.29Q106.47-12.52 106.47-14.78L106.47-14.78L106.47-29.82L109.41-29.82L109.41-14.78L109.41-14.78Q109.41-11.76 108.74-9.05L108.74-9.05L108.74-9.05Q108.07-6.34 106.58-4.28L106.58-4.28L106.58-4.28Q105.08-2.23 102.69-1.01L102.69-1.01L102.69-1.01Q100.30 0.21 96.85 0.21L96.85 0.21L96.85 0.21Q93.32 0.21 90.91-1.07L90.91-1.07L90.91-1.07Q88.49-2.35 87.02-4.45L87.02-4.45L87.02-4.45Q85.55-6.55 84.92-9.24L84.92-9.24L84.92-9.24Q84.29-11.93 84.29-14.78L84.29-14.78L84.29-29.82L87.19-29.82L87.19-14.78L87.19-14.78Q87.19-12.43 87.65-10.21L87.65-10.21L87.65-10.21Q88.12-7.98 89.23-6.26L89.23-6.26L89.23-6.26Q90.34-4.54 92.19-3.49L92.19-3.49L92.19-3.49Q94.04-2.44 96.81-2.44ZM119.36 0L116.42 0L116.42-29.82L119.36-29.82L119.36 0ZM147 0L126.84 0L126.84-29.82L129.78-29.82L129.78-2.60L147-2.60L147 0ZM161.45 0L151.33 0L151.33-29.82L161.45-29.82L161.45-29.82Q165.02-29.82 167.69-28.64L167.69-28.64L167.69-28.64Q170.35-27.47 172.14-25.45L172.14-25.45L172.14-25.45Q173.92-23.44 174.82-20.73L174.82-20.73L174.82-20.73Q175.73-18.02 175.73-14.95L175.73-14.95L175.73-14.95Q175.73-11.55 174.72-8.80L174.72-8.80L174.72-8.80Q173.71-6.05 171.84-4.10L171.84-4.10L171.84-4.10Q169.97-2.14 167.35-1.07L167.35-1.07L167.35-1.07Q164.72 0 161.45 0L161.45 0M172.79-14.95L172.79-14.95L172.79-14.95Q172.79-17.64 172.03-19.89L172.03-19.89L172.03-19.89Q171.28-22.13 169.83-23.77L169.83-23.77L169.83-23.77Q168.38-25.41 166.28-26.31L166.28-26.31L166.28-26.31Q164.18-27.22 161.45-27.22L161.45-27.22L154.27-27.22L154.27-2.60L161.45-2.60L161.45-2.60Q164.22-2.60 166.34-3.55L166.34-3.55L166.34-3.55Q168.46-4.49 169.89-6.15L169.89-6.15L169.89-6.15Q171.32-7.81 172.05-10.06L172.05-10.06L172.05-10.06Q172.79-12.31 172.79-14.95Z" transform="translate(-3.738,29.82)"/>
                </g>
            </g>
        </g>
    </g>
</svg>
